<!DOCTYPE svg PUBLIC "-//W3C//DTD SVG 1.1//EN" "http://www.w3.org/Graphics/SVG/1.1/DTD/svg11.dtd">
<!-- Uploaded to: SVG Repo, www.svgrepo.com, Transformed by: SVG Repo Mixer Tools -->
<svg fill="#ffffff" version="1.1" xmlns="http://www.w3.org/2000/svg" viewBox="-171.36 -171.36 832.32 832.32" xmlns:xlink="http://www.w3.org/1999/xlink" enable-background="new 0 0 489.6 489.6" width="100px" height="100px" stroke="#ffffff">
<g id="SVGRepo_bgCarrier" stroke-width="0">
<path transform="translate(-171.36, -171.36), scale(52.02)" fill="#5e7eb7" d="M9.166.33a2.25 2.25 0 00-2.332 0l-5.25 3.182A2.25 2.25 0 00.5 5.436v5.128a2.25 2.25 0 001.084 1.924l5.25 3.182a2.25 2.25 0 002.332 0l5.25-3.182a2.25 2.25 0 001.084-1.924V5.436a2.25 2.25 0 00-1.084-1.924L9.166.33z" strokewidth="0"/>
</g>
<g id="SVGRepo_tracerCarrier" stroke-linecap="round" stroke-linejoin="round"/>
<g id="SVGRepo_iconCarrier"> <g> <g> <path d="M54.7,0v489.6h379.2h1V0H54.7z M413,468.8H74.5v-448H413V468.8z"/> <rect width="146.9" x="106.8" y="115.6" height="20.8"/> <polygon points="389.1,70.8 374.5,56.3 310.9,118.8 283.9,91.7 269.3,106.3 310.9,147.9 "/> <rect width="146.9" x="106.8" y="250" height="20.8"/> <polygon points="389.1,205.2 374.5,190.6 310.9,254.2 283.9,226 269.3,240.6 310.9,282.3 "/> <rect width="146.9" x="106.8" y="384.4" height="20.8"/> <polygon points="389.1,339.6 374.5,325 310.9,388.6 283.9,360.4 269.3,375 310.9,417.7 "/> </g> </g> </g>
</svg>