<svg id="Layer_1" data-name="Layer 1" xmlns="http://www.w3.org/2000/svg" viewBox="0 0 412.48 188.67"><defs><style>.cls-1{fill:#9698a6;}</style></defs><polygon class="cls-1" points="0 1.3 68.31 1.3 98.24 43.59 64.41 89.78 0 1.3"/><polygon class="cls-1" points="114.51 140.53 147.04 94.18 214.05 188.68 148.99 188.68 114.51 140.53"/><polygon class="cls-1" points="5.21 188.68 136.63 1.3 204.29 1.3 70.27 188.68 5.21 188.68"/><path class="cls-1" d="M304.39,255.19" transform="translate(-42.19 -255.19)"/><path class="cls-1" d="M304.39,255.19" transform="translate(-42.19 -255.19)"/><path class="cls-1" d="M304.39,255.19V371.87c0,30.36,40.12,28.19,40.12,28.19v43.81c-96.29-2.6-98-64.63-98-64.63V256.49Z" transform="translate(-42.19 -255.19)"/><path class="cls-1" d="M396.77,255.19V371.87c0,30.36-40.12,28.19-40.12,28.19v43.81c96.29-2.6,98-64.63,98-64.63V256.49Z" transform="translate(-42.19 -255.19)"/></svg>